<svg width="40" height="40" viewBox="0 0 40 40" fill="none" xmlns="http://www.w3.org/2000/svg">
<circle cx="20" cy="20" r="20" transform="rotate(90 20 20)" fill="#A4D7D8"/>
<path d="M34.7071 20.7071C35.0976 20.3166 35.0976 19.6834 34.7071 19.2929L28.3431 12.9289C27.9526 12.5384 27.3195 12.5384 26.9289 12.9289C26.5384 13.3195 26.5384 13.9526 26.9289 14.3431L32.5858 20L26.9289 25.6569C26.5384 26.0474 26.5384 26.6805 26.9289 27.0711C27.3195 27.4616 27.9526 27.4616 28.3431 27.0711L34.7071 20.7071ZM6 20L6 21L34 21L34 20L34 19L6 19L6 20Z" fill="#262626"/>
</svg>
