<svg width="40" height="40" viewBox="0 0 40 40" fill="none" xmlns="http://www.w3.org/2000/svg">
<circle cx="20" cy="20" r="20" transform="rotate(-90 20 20)" fill="#A4D7D8"/>
<path d="M5.29289 19.2929C4.90237 19.6834 4.90237 20.3166 5.29289 20.7071L11.6569 27.0711C12.0474 27.4616 12.6805 27.4616 13.0711 27.0711C13.4616 26.6805 13.4616 26.0474 13.0711 25.6569L7.41421 20L13.0711 14.3431C13.4616 13.9526 13.4616 13.3195 13.0711 12.9289C12.6805 12.5384 12.0474 12.5384 11.6569 12.9289L5.29289 19.2929ZM34 20L34 19L6 19L6 20L6 21L34 21L34 20Z" fill="#262626"/>
</svg>
